<?xml version="1.0"?>
<svg xmlns="http://www.w3.org/2000/svg" id="Filled" viewBox="0 0 512 512" width="512" height="512"><path d="M488,152A96.026,96.026,0,0,0,347.823,66.752a119.985,119.985,0,0,0-183.646,0,96.015,96.015,0,1,0-63.555,179.291L128,408H384l27.378-161.957A96.033,96.033,0,0,0,488,152Z" style="fill:#e9eef2"/><rect x="128" y="408" width="256" height="80" style="fill:#dcdee0"/><path d="M392,48a104.462,104.462,0,0,0-42.239,8.947,127.885,127.885,0,0,0-187.579,0A104.006,104.006,0,1,0,93.621,252.623L120,408.672V488a8,8,0,0,0,8,8H384a8,8,0,0,0,8-8V408.672l26.379-156.049A104.014,104.014,0,0,0,392,48ZM376,480H136V416H376Zm33.771-241.794a8,8,0,0,0-6.281,6.5L377.239,400H328.592l7.387-103.43h-.008c.014-.189.029-.377.029-.569a8,8,0,0,0-15.971-.569h-.008L312.551,400H264V312a8,8,0,0,0-16,0v88H199.449l-7.47-104.57h-.008A8,8,0,0,0,176,296c0,.192.015.38.029.569h-.008L183.408,400H134.761L108.51,244.709a8,8,0,0,0-6.281-6.5A88.009,88.009,0,1,1,208,152a8,8,0,0,0,16,0,103.994,103.994,0,0,0-47.262-87.116,112.016,112.016,0,0,1,187.237,49.244,8,8,0,1,0,15.422-4.256,126.93,126.93,0,0,0-19.08-39.994A87.115,87.115,0,0,1,392,64a88.01,88.01,0,0,1,17.771,174.206Z"/></svg>
